<svg xmlns="http://www.w3.org/2000/svg" viewBox="0 0 960 670" role="img">
<style>text{font-family:Arial,sans-serif;fill:#172b4d;font-size:14px}.title{font-size:17px;font-weight:bold}line{stroke:#64748b;stroke-width:2}rect{stroke:#2563eb;stroke-width:2;fill:#eff6ff}</style>
<rect width="100%" height="100%" fill="white" stroke="none"/>
<text class="title" x="480.0" y="28" text-anchor="middle">Before inserting 28</text>
<line x1="447.85714285714283" y1="78" x2="158.57142857142858" y2="148"/>
<line x1="447.85714285714283" y1="78" x2="415.7142857142857" y2="148"/>
<line x1="447.85714285714283" y1="78" x2="737.1428571428571" y2="148"/>
<line x1="158.57142857142858" y1="148" x2="94.28571428571429" y2="218"/>
<line x1="158.57142857142858" y1="148" x2="222.85714285714286" y2="218"/>
<line x1="415.7142857142857" y1="148" x2="351.42857142857144" y2="218"/>
<line x1="415.7142857142857" y1="148" x2="480.0" y2="218"/>
<line x1="737.1428571428571" y1="148" x2="608.5714285714286" y2="218"/>
<line x1="737.1428571428571" y1="148" x2="737.1428571428571" y2="218"/>
<line x1="737.1428571428571" y1="148" x2="865.7142857142857" y2="218"/>
<rect x="415.35714285714283" y="61" width="65" height="34" rx="5"/><text x="447.85714285714283" y="83" text-anchor="middle">16, 22</text>
<rect x="126.07142857142858" y="131" width="65" height="34" rx="5"/><text x="158.57142857142858" y="153" text-anchor="middle">11</text>
<rect x="61.78571428571429" y="201" width="65" height="34" rx="5"/><text x="94.28571428571429" y="223" text-anchor="middle">1, 8</text>
<rect x="190.35714285714286" y="201" width="65" height="34" rx="5"/><text x="222.85714285714286" y="223" text-anchor="middle">11, 12</text>
<rect x="383.2142857142857" y="131" width="65" height="34" rx="5"/><text x="415.7142857142857" y="153" text-anchor="middle">18</text>
<rect x="318.92857142857144" y="201" width="65" height="34" rx="5"/><text x="351.42857142857144" y="223" text-anchor="middle">16, 17</text>
<rect x="447.5" y="201" width="65" height="34" rx="5"/><text x="480.0" y="223" text-anchor="middle">18, 19</text>
<rect x="704.6428571428571" y="131" width="65" height="34" rx="5"/><text x="737.1428571428571" y="153" text-anchor="middle">41, 58</text>
<rect x="561.0714285714286" y="201" width="95" height="34" rx="5"/><text x="608.5714285714286" y="223" text-anchor="middle">22, 23, 31</text>
<rect x="704.6428571428571" y="201" width="65" height="34" rx="5"/><text x="737.1428571428571" y="223" text-anchor="middle">41, 52</text>
<rect x="818.2142857142857" y="201" width="95" height="34" rx="5"/><text x="865.7142857142857" y="223" text-anchor="middle">58, 59, 61</text>
<text x="158.57142857142858" y="223" text-anchor="middle">→</text>
<text x="287.14285714285717" y="223" text-anchor="middle">→</text>
<text x="415.7142857142857" y="223" text-anchor="middle">→</text>
<text x="544.2857142857142" y="223" text-anchor="middle">→</text>
<text x="672.8571428571429" y="223" text-anchor="middle">→</text>
<text x="801.4285714285713" y="223" text-anchor="middle">→</text>
<text class="title" x="480.0" y="363" text-anchor="middle">After inserting 28: leaf, parent and root split</text>
<line x1="480.0" y1="413" x2="255.0" y2="483"/>
<line x1="480.0" y1="413" x2="705.0" y2="483"/>
<line x1="255.0" y1="483" x2="142.5" y2="553"/>
<line x1="255.0" y1="483" x2="367.5" y2="553"/>
<line x1="142.5" y1="553" x2="86.25" y2="623"/>
<line x1="142.5" y1="553" x2="198.75" y2="623"/>
<line x1="367.5" y1="553" x2="311.25" y2="623"/>
<line x1="367.5" y1="553" x2="423.75" y2="623"/>
<line x1="705.0" y1="483" x2="592.5" y2="553"/>
<line x1="705.0" y1="483" x2="817.5" y2="553"/>
<line x1="592.5" y1="553" x2="536.25" y2="623"/>
<line x1="592.5" y1="553" x2="648.75" y2="623"/>
<line x1="817.5" y1="553" x2="761.25" y2="623"/>
<line x1="817.5" y1="553" x2="873.75" y2="623"/>
<rect x="447.5" y="396" width="65" height="34" rx="5"/><text x="480.0" y="418" text-anchor="middle">22</text>
<rect x="222.5" y="466" width="65" height="34" rx="5"/><text x="255.0" y="488" text-anchor="middle">16</text>
<rect x="110.0" y="536" width="65" height="34" rx="5"/><text x="142.5" y="558" text-anchor="middle">11</text>
<rect x="53.75" y="606" width="65" height="34" rx="5"/><text x="86.25" y="628" text-anchor="middle">1, 8</text>
<rect x="166.25" y="606" width="65" height="34" rx="5"/><text x="198.75" y="628" text-anchor="middle">11, 12</text>
<rect x="335.0" y="536" width="65" height="34" rx="5"/><text x="367.5" y="558" text-anchor="middle">18</text>
<rect x="278.75" y="606" width="65" height="34" rx="5"/><text x="311.25" y="628" text-anchor="middle">16, 17</text>
<rect x="391.25" y="606" width="65" height="34" rx="5"/><text x="423.75" y="628" text-anchor="middle">18, 19</text>
<rect x="672.5" y="466" width="65" height="34" rx="5"/><text x="705.0" y="488" text-anchor="middle">41</text>
<rect x="560.0" y="536" width="65" height="34" rx="5"/><text x="592.5" y="558" text-anchor="middle">28</text>
<rect x="503.75" y="606" width="65" height="34" rx="5"/><text x="536.25" y="628" text-anchor="middle">22, 23</text>
<rect x="616.25" y="606" width="65" height="34" rx="5"/><text x="648.75" y="628" text-anchor="middle">28, 31</text>
<rect x="785.0" y="536" width="65" height="34" rx="5"/><text x="817.5" y="558" text-anchor="middle">58</text>
<rect x="728.75" y="606" width="65" height="34" rx="5"/><text x="761.25" y="628" text-anchor="middle">41, 52</text>
<rect x="826.25" y="606" width="95" height="34" rx="5"/><text x="873.75" y="628" text-anchor="middle">58, 59, 61</text>
<text x="142.5" y="628" text-anchor="middle">→</text>
<text x="255.0" y="628" text-anchor="middle">→</text>
<text x="367.5" y="628" text-anchor="middle">→</text>
<text x="480.0" y="628" text-anchor="middle">→</text>
<text x="592.5" y="628" text-anchor="middle">→</text>
<text x="705.0" y="628" text-anchor="middle">→</text>
<text x="817.5" y="628" text-anchor="middle">→</text>
</svg>
