<svg xmlns="http://www.w3.org/2000/svg" viewBox="0 0 720 460" role="img">
<style>text{font-family:Arial,sans-serif;fill:#172b4d} .title{font-size:17px;font-weight:bold} .node{font-size:15px} line{stroke:#64748b;stroke-width:2} circle{fill:#eff6ff;stroke:#2563eb;stroke-width:2}</style>
<rect width="100%" height="100%" fill="white"/>
<text class="title" x="360.0" y="27" text-anchor="middle">Final month-name AVL tree</text>
<line x1="108.75" y1="210" x2="52.91666666666667" y2="280"/>
<line x1="164.58333333333334" y1="140" x2="108.75" y2="210"/>
<line x1="164.58333333333334" y1="140" x2="220.41666666666666" y2="210"/>
<line x1="276.25" y1="70" x2="164.58333333333334" y2="140"/>
<line x1="276.25" y1="70" x2="443.75" y2="140"/>
<line x1="332.0833333333333" y1="210" x2="387.9166666666667" y2="280"/>
<line x1="443.75" y1="140" x2="332.0833333333333" y2="210"/>
<line x1="443.75" y1="140" x2="555.4166666666666" y2="210"/>
<line x1="555.4166666666666" y1="210" x2="499.5833333333333" y2="280"/>
<line x1="555.4166666666666" y1="210" x2="611.25" y2="280"/>
<line x1="611.25" y1="280" x2="667.0833333333334" y2="350"/>
<circle cx="52.91666666666667" cy="280" r="22"/>
<text class="node" x="52.91666666666667" y="285" text-anchor="middle">Apr</text>
<circle cx="108.75" cy="210" r="22"/>
<text class="node" x="108.75" y="215" text-anchor="middle">Aug</text>
<circle cx="164.58333333333334" cy="140" r="22"/>
<text class="node" x="164.58333333333334" y="145" text-anchor="middle">Dec</text>
<circle cx="220.41666666666666" cy="210" r="22"/>
<text class="node" x="220.41666666666666" y="215" text-anchor="middle">Feb</text>
<circle cx="276.25" cy="70" r="22"/>
<text class="node" x="276.25" y="75" text-anchor="middle">Jan</text>
<circle cx="332.0833333333333" cy="210" r="22"/>
<text class="node" x="332.0833333333333" y="215" text-anchor="middle">July</text>
<circle cx="387.9166666666667" cy="280" r="22"/>
<text class="node" x="387.9166666666667" y="285" text-anchor="middle">June</text>
<circle cx="443.75" cy="140" r="22"/>
<text class="node" x="443.75" y="145" text-anchor="middle">Mar</text>
<circle cx="499.5833333333333" cy="280" r="22"/>
<text class="node" x="499.5833333333333" y="285" text-anchor="middle">May</text>
<circle cx="555.4166666666666" cy="210" r="22"/>
<text class="node" x="555.4166666666666" y="215" text-anchor="middle">Nov</text>
<circle cx="611.25" cy="280" r="22"/>
<text class="node" x="611.25" y="285" text-anchor="middle">Oct</text>
<circle cx="667.0833333333334" cy="350" r="22"/>
<text class="node" x="667.0833333333334" y="355" text-anchor="middle">Sept</text>
</svg>
